<svg version="1.1" id="Layer_1" xmlns="http://www.w3.org/2000/svg" xmlns:xlink="http://www.w3.org/1999/xlink" x="0px" y="0px"
	 width="100%" viewBox="0 0 2000 2000" enable-background="new 0 0 2000 2000" xml:space="preserve">
<path fill="#FFFFFF" opacity="1.000000" stroke="none" 
	d="
M1111.000000,2001.000000 
	C740.666687,2001.000000 370.833344,2001.000000 1.000000,2001.000000 
	C1.000000,1334.333374 1.000000,667.666687 1.000000,1.000000 
	C667.666687,1.000000 1334.333374,1.000000 2001.000000,1.000000 
	C2001.000000,667.666687 2001.000000,1334.333374 2001.000000,2001.000000 
	C1704.500000,2001.000000 1408.000000,2001.000000 1111.000000,2001.000000 
M1254.500000,1947.000000 
	C1485.260254,1947.000000 1716.020386,1947.000000 1946.713013,1947.000000 
	C1946.713013,1316.024048 1946.713013,685.621765 1946.713013,55.287109 
	C1316.023682,55.287109 685.621460,55.287109 55.287266,55.287109 
	C55.287266,685.976562 55.287266,1316.378784 55.287266,1947.000000 
	C454.882996,1947.000000 854.191467,1947.000000 1254.500000,1947.000000 
z"/>
<path fill="#000000" opacity="1.000000" stroke="none" 
	d="
M1254.000000,1947.000000 
	C854.191467,1947.000000 454.882996,1947.000000 55.287266,1947.000000 
	C55.287266,1316.378784 55.287266,685.976562 55.287266,55.287109 
	C685.621460,55.287109 1316.023682,55.287109 1946.713013,55.287109 
	C1946.713013,685.621765 1946.713013,1316.024048 1946.713013,1947.000000 
	C1716.020386,1947.000000 1485.260254,1947.000000 1254.000000,1947.000000 
z"/>
</svg>